<svg data-v-2de818a2="" xmlns="http://www.w3.org/2000/svg" viewBox="0 0 24 24" width="24" height="24" class="navigation-channel-icon">
        <path d="M22.6539 10.8116L21.7763 10.8116L21.7763 6.67165C21.7763 6.26405 21.5181 5.88326 21.1243 5.77753C20.529 5.61779 19.9862 6.06867 19.9862 6.64023L19.9862 10.8116L12.2027 10.8116L11.7223 10.8116L3.93884 10.8116L3.93884 6.67165C3.93884 6.26405 3.68026 5.88326 3.28683 5.77753C2.69114 5.61779 2.14869 6.06867 2.14869 6.64023L2.14869 10.8116L1.27105 10.8116C1.06036 10.8116 0.88797 10.984 0.88797 11.1947L0.88797 13.1982C0.88797 13.4093 1.06036 13.5813 1.27105 13.5813L1.93417 13.5813L1.93417 15.6645C1.93417 17.4991 3.43508 19 5.26928 19L8.10371 19C9.93791 19 11.4388 17.4991 11.4388 15.6645L11.4388 15.1535C11.4388 15.0481 11.5246 14.9619 11.6304 14.9619L12.2946 14.9619C12.4004 14.9619 12.4862 15.0481 12.4862 15.1535L12.4862 15.6645C12.4862 17.4991 13.9867 19 15.8213 19L18.6557 19C20.4903 19 21.9908 17.4991 21.9908 15.6645L21.9908 13.5813L22.6539 13.5813C22.8646 13.5813 23.037 13.4093 23.037 13.1982L23.037 11.1947C23.037 10.984 22.8646 10.8116 22.6539 10.8116z" fill="#E5E6E6ff" />
        <path d="M7.94131 17.5384L5.41066 17.5384C4.23077 17.5384 3.2654 16.5726 3.2654 15.3927L3.2654 13.4348C3.2654 12.6089 3.94116 11.9327 4.76709 11.9327L8.58488 11.9327C9.41081 11.9327 10.0866 12.6089 10.0866 13.4348L10.0866 15.3927C10.0866 16.5726 9.1212 17.5384 7.94131 17.5384z" fill="#FF5C7Aff" />
        <path d="M15.9834 17.5384L18.5141 17.5384C19.694 17.5384 20.6593 16.5726 20.6593 15.3927L20.6593 13.4348C20.6593 12.6089 19.9836 11.9327 19.1576 11.9327L15.3398 11.9327C14.5139 11.9327 13.8382 12.6089 13.8382 13.4348L13.8382 15.3927C13.8382 16.5726 14.8035 17.5384 15.9834 17.5384z" fill="#00B9E7ff" />
      </svg>