<svg data-v-2de818a2="" xmlns="http://www.w3.org/2000/svg" viewBox="0 0 24 24" width="24" height="24" class="navigation-channel-icon">
        <path d="M3.43895 5.27154C3.97838 5.15306 4.51172 5.49429 4.63021 6.03372L7.82527 20.5793C7.94376 21.1187 7.60252 21.6521 7.0631 21.7706C6.52367 21.8891 5.99033 21.5478 5.87184 21.0084L2.67678 6.4628C2.55829 5.92338 2.89953 5.39003 3.43895 5.27154z" fill="#FF8834ff" />
        <path d="M6.36846 3.77345C4.11079 3.85093 2.93243 5.55337 2.93243 5.55337L5.51618 17.5908C5.51618 17.5908 7.37839 15.0701 14.779 16.5408C17.9444 17.1698 20.0181 16.1224 20.993 15.1215C21.1959 14.9132 21.2538 14.6115 21.1904 14.3278L19.0783 4.88443C18.8598 3.90743 17.8446 3.56835 16.9028 3.9077C16.1788 4.16855 15.1728 4.37812 13.7564 4.38329C11.0216 4.39327 9.93072 3.6512 6.36846 3.77345z" fill="#FF8834ff" />
        <path d="M10.9406 13.9283C10.9441 13.951 10.9737 13.9695 10.9997 13.9655C13.0525 13.8575 14.3895 13.0034 14.9763 12.5658C15.5631 12.1282 16.3114 11.1798 14.9488 10.7417C13.5306 10.2892 12.3352 10.4155 11.3301 10.6514C11.291 10.6574 11.2614 10.6389 11.2579 10.6163C10.5017 8.22176 10.2907 5.98625 10.2541 5.57531C10.2489 5.54141 10.2193 5.52282 10.1819 5.54015C9.90896 5.67479 8.8414 6.19803 8.61885 6.31333C8.59451 6.32866 8.58495 6.35327 8.58844 6.37588C8.74244 6.76872 10.0153 10.0903 10.9406 13.9283zM13.9153 11.7457C13.3695 12.3622 12.6766 12.8045 12.6166 12.8485C12.581 12.8771 12.5497 12.8472 12.5349 12.8379C12.4914 12.7289 12.2643 12.0349 12.1137 11.4911C12.1102 11.4685 12.1311 11.4306 12.172 11.4358C13.1336 11.4381 13.864 11.6727 13.8918 11.6799C13.9327 11.6852 13.9379 11.7191 13.9153 11.7457z" fill="#FFD671ff" />
      </svg>