<svg data-v-2de818a2="" xmlns="http://www.w3.org/2000/svg" viewBox="0 0 24 24" width="24" height="24" class="navigation-channel-icon">
        <path d="M6.68652 6.24L17.14138 6.24C17.3903 6.24 17.51472 6.432 17.51472 6.816L17.51472 18.336C17.51472 18.72 17.3903 18.912 17.14138 18.912L6.68652 18.912C6.43759 18.912 6.31312 18.72 6.31312 18.336L6.31312 6.816C6.31312 6.432 6.43759 6.24 6.68652 6.24z" fill="#00B9E7ff" />
        <path d="M7.46511 6.24L7.46511 18.912L6.20295 18.912C6.13082 18.912 5.50921 18.912 4.87313 18.912L4.87313 18.912C4.07785 18.912 3.43312 18.26707 3.43311 17.47181C3.43311 16.98864 3.43311 16.56384 3.43311 16.53754L3.43311 11.04C3.43311 10.97894 3.43312 9.07096 3.43313 7.67933C3.43313 6.88406 4.0777 6.24012 4.87296 6.2401C6.00907 6.24005 7.41188 6.24 7.46511 6.24zM17.95853 6.24L16.68115 6.24L16.68115 18.912C17.54515 18.912 18.40915 18.912 19.27315 18.912C20.06842 18.912 20.71315 18.26726 20.71315 17.472C20.71315 15.99792 20.71315 14.52374 20.71315 13.04966L20.71315 10.24339C20.71315 10.1905 20.71315 8.80601 20.71315 7.67992C20.71315 6.88464 20.06832 6.24012 19.27306 6.24008C18.6145 6.24004 17.99731 6.24 17.95853 6.24z" fill="#59E1F9ff" />
        <path d="M4.25893 9.02677C4.25893 9.42443 4.58128 9.74677 4.97893 9.74677L6.00518 9.74677C6.40283 9.74677 6.72518 9.42443 6.72518 9.02677C6.72518 8.62913 6.40283 8.30677 6.00518 8.30677L4.97893 8.30677C4.58128 8.30677 4.25893 8.62913 4.25893 9.02677z" fill="#00B9E7ff" />
        <path d="M17.51472 9.02677C17.51472 9.42443 17.83709 9.74677 18.23472 9.74677L19.26096 9.74677C19.65859 9.74677 19.98096 9.42443 19.98096 9.02677C19.98096 8.62913 19.65859 8.30677 19.26096 8.30677L18.23472 8.30677C17.83709 8.30677 17.51472 8.62913 17.51472 9.02677z" fill="#00B9E7ff" />
        <path d="M4.25893 12.816C4.25893 13.21363 4.58128 13.536 4.97893 13.536L6.00518 13.536C6.40283 13.536 6.72518 13.21363 6.72518 12.816C6.72518 12.41837 6.40283 12.096 6.00518 12.096L4.97893 12.096C4.58128 12.096 4.25893 12.41837 4.25893 12.816z" fill="#00B9E7ff" />
        <path d="M17.51472 12.816C17.51472 13.21363 17.83709 13.536 18.23472 13.536L19.26096 13.536C19.65859 13.536 19.98096 13.21363 19.98096 12.816C19.98096 12.41837 19.65859 12.096 19.26096 12.096L18.23472 12.096C17.83709 12.096 17.51472 12.41837 17.51472 12.816z" fill="#00B9E7ff" />
        <path d="M4.25893 16.60522C4.25893 17.00285 4.58128 17.32522 4.97893 17.32522L6.00518 17.32522C6.40283 17.32522 6.72518 17.00285 6.72518 16.60522C6.72518 16.20749 6.40283 15.88522 6.00518 15.88522L4.97893 15.88522C4.58128 15.88522 4.25893 16.20749 4.25893 16.60522z" fill="#00B2DEff" />
        <path d="M17.51472 16.60522C17.51472 17.00285 17.83709 17.32522 18.23472 17.32522L19.26096 17.32522C19.65859 17.32522 19.98096 17.00285 19.98096 16.60522C19.98096 16.20749 19.65859 15.88522 19.26096 15.88522L18.23472 15.88522C17.83709 15.88522 17.51472 16.20749 17.51472 16.60522z" fill="#00B9E7ff" />
        <path d="M13.51315 4.54656C13.71072 4.48781 13.87085 4.50336 13.99354 4.59322C14.1168 4.68307 14.24122 4.8144 14.36794 4.98605C14.49408 5.15827 14.65018 5.35181 14.83507 5.56781C15.02054 5.78323 15.27283 5.98426 15.59309 6.1703C15.86842 6.3431 16.10976 6.46176 16.3177 6.52512L16.90176 6.70195C17.08666 6.75667 17.26464 6.82637 17.43398 6.91046C17.43398 6.91046 17.83315 7.1351 18.00826 7.37126C18.19085 7.61664 18.34291 7.81363 18.38208 8.06822C18.42067 8.32339 18.41837 8.56128 18.37171 8.78131C18.33418 8.97722 18.26112 9.16462 18.15629 9.33427C18.0601 9.4823 17.97946 9.55776 17.91437 9.55776C17.84986 9.55834 17.79283 9.52147 17.7433 9.44429C17.69318 9.36826 17.6569 9.21965 17.63386 8.99962C17.59584 8.6425 17.4841 8.39136 17.2969 8.24678C17.1097 8.10221 16.81651 8.02214 16.41619 8.00544C16.02413 7.9904 15.64368 7.86893 15.31546 7.65408C15.03725 7.47322 14.77402 7.27162 14.52864 7.05101C14.32877 6.88512 14.17325 6.83616 14.05862 6.90931C13.9463 6.98189 13.88813 7.0919 13.88467 7.24109L13.872 7.84301L13.72109 14.00333L13.70323 14.79994C13.70669 15.0217 13.66579 15.27686 13.58112 15.56486C13.49587 15.85286 13.34093 16.13395 13.11629 16.40755C12.8928 16.68115 12.59674 16.92998 12.2281 17.1552C11.85946 17.38042 11.40499 17.54573 10.8647 17.65171C10.31462 17.75885 9.82042 17.73235 9.38205 17.5728C8.94429 17.41325 8.60848 17.18054 8.37463 16.87469C8.14423 16.58381 8.0273 16.20883 8.04228 15.80563C8.05783 15.39955 8.24157 14.99462 8.59293 14.59142C8.94429 14.18822 9.32272 13.88755 9.72768 13.68883C10.09603 13.50278 10.48838 13.36867 10.8935 13.29024C11.22173 13.22621 11.55667 13.20336 11.89056 13.22227C12.18317 13.24589 12.39859 13.27584 12.53741 13.31098C12.53741 13.31098 12.68256 7.00723 12.72403 5.62483C12.72922 5.35238 12.80467 5.12256 12.94752 4.92787C13.09152 4.73549 13.27987 4.60819 13.51315 4.54656z" fill="#FDDE80ff" />
      </svg>