<svg data-v-2de818a2="" xmlns="http://www.w3.org/2000/svg" viewBox="0 0 24 24" width="24" height="24" class="navigation-channel-icon">
        <path d="M21.5069 12.2C21.5069 11.5611 20.7948 11.1799 20.2631 11.5344L16.9054 13.7729C16.4304 14.0895 16.4304 14.7875 16.9054 15.1042L20.2631 17.3427C20.7948 17.6971 21.5069 17.316 21.5069 16.6771L21.5069 12.2z" fill="#00B9E7ff" />
        <path d="M2.46637 10.9385C2.46637 9.83391 3.3618 8.93848 4.46637 8.93848L16.4664 8.93848C17.5709 8.93848 18.4664 9.83391 18.4664 10.9385L18.4664 17.9385C18.4664 19.043 17.5709 19.9385 16.4664 19.9385L4.46637 19.9385C3.3618 19.9385 2.46637 19.043 2.46637 17.9385L2.46637 10.9385z" fill="#00B9E7ff" />
        <path d="M9.26082 6.93848C9.26082 8.04305 8.36539 8.93848 7.26082 8.93848C6.15625 8.93848 5.26082 8.04305 5.26082 6.93848C5.26082 5.83391 6.15625 4.93848 7.26082 4.93848C8.36539 4.93848 9.26082 5.83391 9.26082 6.93848z" fill="#59E0F9ff" />
        <path d="M15.9069 5.97694C15.9069 7.61255 14.581 8.93848 12.9454 8.93848C11.3097 8.93848 9.98383 7.61255 9.98383 5.97694C9.98383 4.34133 11.3097 3.01541 12.9454 3.01541C14.581 3.01541 15.9069 4.34133 15.9069 5.97694z" fill="#59E0F9ff" />
        <path d="M8.22418 12.2C8.22418 11.5611 8.9363 11.1799 9.46794 11.5344L12.8257 13.7729C13.3007 14.0895 13.3007 14.7875 12.8257 15.1042L9.46794 17.3427C8.9363 17.6971 8.22418 17.316 8.22418 16.6771L8.22418 12.2z" fill="#FDDE80ff" />
      </svg>