<svg data-v-2de818a2="" xmlns="http://www.w3.org/2000/svg" viewBox="0 0 24 24" width="24" height="24" class="navigation-channel-icon">
        <path d="M17.4095 20.4047L6.02508 20.4047C5.22979 20.4047 4.58508 19.76006 4.58508 18.9647L4.58508 5.56356C4.58508 4.76827 5.22979 4.12356 6.02508 4.12356L17.4095 4.12356C18.20477 4.12356 18.8495 4.76827 18.8495 5.56356L18.8495 18.9647C18.8495 19.76006 18.20477 20.4047 17.4095 20.4047z" fill="#59E1F9ff" />
        <path d="M15.61574 13.17888L7.81898 13.17888C7.13058 13.17888 6.56738 12.61891 6.56738 11.93443L6.56738 7.62798C6.56738 6.94351 7.13058 6.38353 7.81898 6.38353L15.61574 6.38353C16.30416 6.38353 16.86701 6.94351 16.86701 7.62798L16.86701 11.93443C16.86701 12.61891 16.30416 13.17888 15.61574 13.17888z" fill="#00B9E7ff" />
        <path d="M10.52938 9.06676C10.52938 9.65577 10.04899 10.13386 9.45616 10.13386C8.86376 10.13386 8.38336 9.65577 8.38336 9.06676C8.38336 8.47774 8.86376 7.99969 9.45616 7.99969C10.04899 7.99969 10.52938 8.47774 10.52938 9.06676z" fill="#FDDE80ff" />
        <path d="M8.8139 13.17888L11.43869 10.06557C11.82547 9.60621 12.53635 9.60621 12.92352 10.06557L15.54787 13.17888L8.8139 13.17888z" fill="#FDDE80ff" />
        <path d="M6.55239 15.36586C6.55239 14.96861 6.87441 14.64662 7.27164 14.64662L16.14778 14.64662C16.54493 14.64662 16.86701 14.96861 16.86701 15.36586C16.86701 15.7631 16.54493 16.08509 16.14778 16.08509L7.27164 16.08509C6.87441 16.08509 6.55239 15.7631 6.55239 15.36586z" fill="#00B9E7ff" />
        <path d="M6.55239 17.90045C6.55239 17.5032 6.87441 17.18122 7.27164 17.18122L16.14778 17.18122C16.54493 17.18122 16.86701 17.5032 16.86701 17.90045C16.86701 18.2977 16.54493 18.61968 16.14778 18.61968L7.27164 18.61968C6.87441 18.61968 6.55239 18.2977 6.55239 17.90045z" fill="#00B9E7ff" />
      </svg>