<svg data-v-2de818a2="" xmlns="http://www.w3.org/2000/svg" viewBox="0 0 24 24" width="24" height="24" class="navigation-channel-icon">
        <path d="M6.42578 5.31567C6.42578 4.48725 7.09735 3.81567 7.92578 3.81567L19.0355 3.81567C19.864 3.81567 20.5355 4.48725 20.5355 5.31567L20.5355 13.996C20.5355 14.8244 19.864 15.496 19.0355 15.496L7.92578 15.496C7.09735 15.496 6.42578 14.8244 6.42578 13.996L6.42578 5.31567z" fill="#1F9F81ff" />
        <path d="M3.46445 7.52307C3.46445 6.69464 4.13602 6.02307 4.96445 6.02307L16.8619 6.02307C17.6904 6.02307 18.3619 6.69464 18.3619 7.52307L18.3619 15.8802C18.3619 16.7086 17.6904 17.3802 16.8619 17.3802L8.75484 17.3802L6.20508 19.4703C5.85708 19.7556 5.334 19.508 5.334 19.058L5.334 17.3802L4.96445 17.3802C4.13602 17.3802 3.46445 16.7086 3.46445 15.8802L3.46445 7.52307z" fill="#57D587ff" />
        <path d="M5.02676 10.026C5.02676 9.61179 5.36255 9.276 5.77676 9.276L10.7923 9.276C11.2065 9.276 11.5423 9.61179 11.5423 10.026C11.5423 10.4402 11.2065 10.776 10.7923 10.776L5.77676 10.776C5.36255 10.776 5.02676 10.4402 5.02676 10.026z" fill="#1F9F81ff" />
        <path d="M5.02676 12.8437C5.02676 12.4295 5.36255 12.0937 5.77676 12.0937L8.5855 12.0937C8.99971 12.0937 9.3355 12.4295 9.3355 12.8437C9.3355 13.2579 8.99971 13.5937 8.5855 13.5937L5.77676 13.5937C5.36255 13.5937 5.02676 13.2579 5.02676 12.8437z" fill="#1F9F81ff" />
      </svg>