<svg data-v-2de818a2="" xmlns="http://www.w3.org/2000/svg" viewBox="0 0 24 24" width="24" height="24" class="navigation-channel-icon">
        <path d="M2.46629 7.4919C2.46629 6.19083 3.52102 5.13611 4.82208 5.13611L18.9568 5.13611C20.2579 5.13611 21.3126 6.19083 21.3126 7.4919L21.3126 15.7372C21.3126 17.0382 20.2579 18.093 18.9568 18.093L4.82209 18.093C3.52102 18.093 2.46629 17.0382 2.46629 15.7372L2.46629 7.4919z" fill="#00B9E7ff" />
        <path d="M12.5913 14.7129L12.5913 8.48245C12.5913 8.06824 12.9271 7.73245 13.3413 7.73245C13.7555 7.73245 14.0913 8.06824 14.0913 8.48245L14.0913 10.9268L16.7954 8.05667C17.0794 7.7552 17.5545 7.74139 17.8559 8.02542C18.1574 8.30947 18.1712 8.78449 17.8872 9.08597L15.6362 11.4746L18.0298 13.9297L18.0806 13.9873C18.3171 14.2849 18.2941 14.7192 18.0161 14.9903C17.7381 15.2612 17.3037 15.2731 17.0122 15.0293L16.9556 14.9766L14.0913 12.0371L14.0913 14.7129C14.0912 15.127 13.7554 15.4629 13.3413 15.4629C12.9272 15.4629 12.5914 15.127 12.5913 14.7129z" fill="#FDDE80ff" />
        <path d="M6.80148 19.7504C6.80148 19.3519 7.05884 18.9971 7.44009 18.8812C10.8785 17.8363 13.0226 17.8189 16.3479 18.8744C16.7253 18.9942 16.9776 19.3482 16.9776 19.7442C16.9776 20.2554 16.5632 20.6698 16.052 20.6698L7.72087 20.6698C7.21311 20.6698 6.80148 20.2582 6.80148 19.7504z" fill="#59E0F9ff" />
        <path d="M8.59323 14.7464L8.59323 13.9505L5.67624 13.9505C5.40545 13.9505 5.15582 13.8046 5.02292 13.5687C4.89005 13.3328 4.8943 13.0434 5.03464 12.8119L7.72995 8.36655L7.82468 8.2308C8.06446 7.93132 8.42929 7.75336 8.81882 7.75327L8.94968 7.7601C9.59193 7.82548 10.0932 8.36818 10.0932 9.02768L10.0932 12.4505L10.6059 12.4505L10.6821 12.4544C11.0604 12.4927 11.3559 12.8122 11.3559 13.2005C11.3559 13.589 11.0604 13.9084 10.6821 13.9466L10.6059 13.9505L10.0932 13.9505L10.0932 14.7464C10.0932 15.1606 9.75738 15.4964 9.34323 15.4964C8.92902 15.4964 8.59323 15.1606 8.59323 14.7464zM7.00827 12.4505L8.59323 12.4505L8.59323 9.8353L7.00827 12.4505z" fill="#FDDE80ff" />
      </svg>