<svg data-v-2de818a2="" xmlns="http://www.w3.org/2000/svg" viewBox="0 0 24 24" width="24" height="24" class="navigation-channel-icon">
        <path d="M3.26941 6.70078C3.26941 5.90546 3.91417 5.26074 4.70948 5.26075C6.29242 5.26078 7.87534 5.26074 9.45827 5.26074C9.98246 5.26074 10.48387 5.47506 10.84608 5.85396L11.72611 6.77448C11.91514 6.97222 12.23098 6.97222 12.42 6.77448L13.30003 5.85396C13.66224 5.47506 14.16365 5.26073 14.6879 5.26073L19.43674 5.26073C20.232 5.26073 20.87674 5.90545 20.87674 6.70074L20.87674 6.70074L20.87674 17.32963C20.87674 18.12499 20.232 18.76973 19.43674 18.76973L19.43674 18.76973L14.6879 18.76973C14.16365 18.76973 13.66224 18.984 13.30003 19.36291L12.42 20.28346C12.23098 20.48112 11.91514 20.48112 11.72611 20.28346L10.84608 19.36291C10.48387 18.984 9.98246 18.76973 9.45827 18.76973C7.87531 18.76973 6.29237 18.76973 4.70941 18.76973C3.91412 18.76973 3.26941 18.12499 3.26941 17.32963L3.26941 6.70078z" fill="#FDDE80ff" />
        <path d="M8.4098 8.33376C8.47587 8.17739 8.69748 8.17739 8.76353 8.33376L9.27475 9.5439C9.56655 10.23466 10.11629 10.78435 10.80701 11.07619L12.01718 11.58739C12.17347 11.65344 12.17347 11.87501 12.01718 11.94106L10.80701 12.45235C10.11629 12.7441 9.56655 13.29379 9.27475 13.98461L8.76353 15.19469C8.69748 15.35107 8.47587 15.35107 8.4098 15.19469L7.89858 13.98461C7.60678 13.29379 7.05708 12.7441 6.36634 12.45235L5.1562 11.94106C4.99982 11.87501 4.99982 11.65344 5.1562 11.58739L6.36634 11.07619C7.05708 10.78435 7.60679 10.23466 7.89858 9.5439L8.4098 8.33376z" fill="#FB813Aff" />
        <path d="M11.90381 14.20819C11.96986 14.05181 12.19142 14.05181 12.25747 14.20819L12.45523 14.67638C12.55258 14.90659 12.73574 15.08986 12.96605 15.1871L13.43414 15.38486C13.59053 15.45091 13.59053 15.67248 13.43414 15.73853L12.96605 15.93629C12.73574 16.03363 12.55258 16.2168 12.45523 16.4471L12.25747 16.9152C12.19142 17.07158 11.96986 17.07158 11.90381 16.9152L11.70605 16.4471C11.6088 16.2168 11.42554 16.03363 11.19533 15.93629L10.72714 15.73853C10.57075 15.67248 10.57075 15.45091 10.72714 15.38486L11.19533 15.1871C11.42554 15.08986 11.6088 14.90659 11.70605 14.67638L11.90381 14.20819z" fill="#FB813Aff" />
        <path d="M19.33709 5.26077L15.98429 5.26077L15.98429 11.04854C15.98429 11.19245 16.13674 11.28518 16.26451 11.21904L17.59651 10.52976C17.65258 10.50067 17.71939 10.50115 17.77507 10.53082L19.05475 11.21347C19.18262 11.28173 19.33709 11.18899 19.33709 11.04403L19.33709 5.26077z" fill="#FB813Aff" />
      </svg>