<svg data-v-2de818a2="" xmlns="http://www.w3.org/2000/svg"
     viewBox="0 0 24 24" width="24" height="24"
     class="navigation-channel-icon">
  <path
    d="M8.2011 12.48538C6.85349 11.32646 6.03657 9.5793 6.13287 7.66699C6.29805 4.38114 9.09551 1.85151 12.38131 2.01671C15.66691 2.18138 18.1968 4.97935 18.03139 8.26466C17.94317 10.02414 17.09981 11.56694 15.83078 12.5951L14.66342 19.96877C14.57366 20.53594 14.28326 21.05194 13.84522 21.42307C13.40707 21.7943 12.85037 21.99581 12.27619 21.9912L11.6112 21.98621C11.03693 21.9817 10.4833 21.77117 10.0511 21.39293C9.61891 21.01469 9.33694 20.49379 9.2564 19.92518L8.2011 12.48538z"
    fill="#FF8834ff" />
  <path
    d="M7.91778 15.09283C7.99672 15.17328 8.05768 15.26947 8.09664 15.37526C8.13559 15.48096 8.15163 15.59376 8.14372 15.70618C8.1358 15.8185 8.1041 15.92794 8.0507 16.0272C7.99732 16.12646 7.92347 16.21315 7.83403 16.2817L7.11123 16.83504C6.97855 16.93546 6.81381 16.98413 6.64784 16.97194C6.48186 16.95984 6.326 16.88765 6.20939 16.7689C6.09277 16.65014 6.0234 16.49299 6.01423 16.32682C6.00505 16.16064 6.05672 15.99686 6.15955 15.86602L6.7278 15.15446C6.798 15.06634 6.8861 14.99414 6.98628 14.94269C7.08645 14.89114 7.19643 14.86147 7.30892 14.85571C7.42141 14.84986 7.53386 14.868 7.63883 14.9089C7.74378 14.94979 7.83887 15.01248 7.91778 15.09283z"
    fill="#FF8834ff" />
  <path
    d="M5.54616 7.86556C5.55401 7.35223 5.97651 6.94245 6.48983 6.9503L17.7 7.12166C18.21331 7.12951 18.62314 7.552 18.61526 8.06533C18.60739 8.57866 18.1849 8.98843 17.67158 8.98059L6.46141 8.80922C5.94809 8.80138 5.53832 8.37888 5.54616 7.86556z"
    fill="#FFD671ff" />
  <path
    d="M5.59917 12.92064C5.60256 12.12538 6.25001 11.48333 7.0453 11.48678L17.12736 11.52979C17.92262 11.53315 18.56458 12.18058 18.56122 12.97584L18.54662 16.39075C18.54326 17.18602 17.89574 17.82797 17.10048 17.82461L7.01846 17.7816C6.22318 17.77824 5.58122 17.13072 5.58462 16.33546L5.59917 12.92064z"
    fill="#FFD671ff" />
  <path
    d="M10.56288 14.8079C10.56288 14.4767 10.66666 14.1143 10.81622 13.80374C10.87968 13.67194 11.03645 13.62048 11.17229 13.67482C11.34576 13.74422 11.41123 13.95293 11.33021 14.12122C11.20627 14.3783 11.13994 14.63136 11.13994 14.92166C11.13994 15.28742 11.2537 15.5231 11.47315 15.5231C11.67638 15.5231 11.80637 15.38496 11.80637 15.05174C11.80637 14.94346 11.80214 14.85226 11.79254 14.75309C11.77574 14.58019 11.90582 14.42592 12.07949 14.42592C12.2497 14.42592 12.37949 14.57462 12.36451 14.74416C12.35549 14.84688 12.35098 14.94029 12.35098 15.05174C12.35098 15.40118 12.4729 15.5231 12.66787 15.5231C12.86294 15.5231 13.00118 15.28742 13.00118 14.82413C13.00118 14.53882 12.96106 14.32963 12.85565 14.10096C12.77904 13.93478 12.84355 13.73098 13.01443 13.6657C13.14374 13.61626 13.29168 13.66416 13.3561 13.78666C13.50768 14.07485 13.60262 14.38579 13.60262 14.79168C13.60262 15.5881 13.2937 16.02701 12.74102 16.02701C12.46694 16.02701 12.2089 15.9071 12.08573 15.59587C12.0839 15.59126 12.07949 15.5881 12.0745 15.5881C12.0697 15.5881 12.06528 15.59117 12.06336 15.59568C11.9328 15.90701 11.70672 16.02701 11.43254 16.02701C10.91232 16.01894 10.56288 15.59626 10.56288 14.8079z"
    fill="#FF8834ff" />
  <path
    d="M11.43024 16.17101L11.43024 16.17101C11.12746 16.1663 10.8673 16.03862 10.68701 15.79594C10.51018 15.55776 10.41888 15.22118 10.41888 14.8079C10.41888 14.44934 10.53034 14.06544 10.68643 13.74125C10.78646 13.5336 11.02771 13.46198 11.22576 13.54118C11.48746 13.64582 11.57194 13.9512 11.4599 14.18371C11.34413 14.424 11.28394 14.65574 11.28394 14.92166C11.28394 15.09312 11.3112 15.21658 11.35123 15.29174C11.38762 15.35971 11.42726 15.3791 11.47315 15.3791C11.53901 15.3791 11.57578 15.35885 11.60131 15.32525C11.63213 15.28464 11.66237 15.20333 11.66237 15.05174C11.66237 14.94778 11.65834 14.86128 11.64922 14.76691C11.62483 14.51616 11.81424 14.28192 12.07949 14.28192C12.33859 14.28192 12.52992 14.50742 12.50794 14.75683C12.4993 14.85552 12.49498 14.9447 12.49498 15.05174C12.49498 15.21475 12.52435 15.29539 12.552 15.33283C12.57293 15.36106 12.60307 15.3791 12.66787 15.3791C12.69494 15.3791 12.73642 15.3671 12.77914 15.28253C12.82378 15.19402 12.85718 15.04464 12.85718 14.82413C12.85718 14.55562 12.82003 14.36774 12.7249 14.16125C12.61949 13.93267 12.70138 13.63123 12.96298 13.5312C13.15344 13.45834 13.38182 13.52621 13.48358 13.71965C13.64486 14.02646 13.74662 14.36016 13.74662 14.79168C13.74662 15.20515 13.66694 15.54749 13.49712 15.79056C13.32202 16.04093 13.06118 16.17101 12.74102 16.17101C12.492 16.17101 12.24307 16.08336 12.0745 15.86659C12.01853 15.9408 11.95344 16.00176 11.87971 16.04918C11.74445 16.13626 11.59075 16.17101 11.43254 16.17101L11.43024 16.17101zM11.99088 15.73498C11.99558 15.72758 12.00029 15.72 12.0049 15.71232C12.02419 15.67997 12.04224 15.64474 12.05866 15.60653C12.06029 15.60298 12.06182 15.59933 12.06336 15.59568C12.06528 15.59117 12.0696 15.58819 12.0745 15.58819C12.07949 15.58819 12.0839 15.59126 12.08573 15.59587C12.08717 15.59962 12.0887 15.60326 12.09014 15.60691C12.10589 15.64512 12.12374 15.68035 12.14342 15.7128C12.14794 15.72019 12.15254 15.72749 12.15725 15.73469C12.29453 15.94339 12.51226 16.02701 12.74102 16.02701C13.2937 16.02701 13.60262 15.58819 13.60262 14.79168C13.60262 14.38579 13.50768 14.07485 13.3561 13.78666C13.29168 13.66416 13.14365 13.61626 13.01443 13.6657C12.84355 13.73098 12.77904 13.93478 12.85565 14.10096C12.96106 14.32963 13.00118 14.53882 13.00118 14.82413C13.00118 15.28742 12.86294 15.5231 12.66787 15.5231C12.4728 15.5231 12.35098 15.40118 12.35098 15.05174C12.35098 14.94029 12.35549 14.84688 12.36451 14.74416C12.37939 14.57462 12.2497 14.42592 12.07949 14.42592C11.90582 14.42592 11.77574 14.58019 11.79254 14.75309C11.80214 14.85226 11.80637 14.94346 11.80637 15.05174C11.80637 15.38496 11.67638 15.5231 11.47315 15.5231C11.2537 15.5231 11.13994 15.28742 11.13994 14.92166C11.13994 14.63136 11.20627 14.3784 11.33011 14.12122C11.41123 13.95293 11.34576 13.74422 11.17229 13.67491C11.03645 13.62048 10.87968 13.67194 10.81622 13.80374C10.66666 14.1143 10.56288 14.4767 10.56288 14.8079C10.56288 15.59626 10.91232 16.01894 11.43254 16.02701C11.66122 16.02701 11.85658 15.94349 11.99088 15.73498z"
    fill="#FF8834ff" />
  <path
    d="M7.51238 13.71101C7.61536 13.46678 7.89686 13.35226 8.14115 13.45517L9.74237 14.13024C9.92026 14.20522 10.03594 14.37946 10.03594 14.57251C10.03594 14.76557 9.92026 14.93981 9.74237 15.01478L8.14115 15.68986C7.89686 15.79277 7.61536 15.67824 7.51238 15.43392C7.40941 15.1897 7.52396 14.90813 7.76824 14.80522L8.32024 14.57251L7.76824 14.33981C7.52396 14.2368 7.40941 13.95533 7.51238 13.71101z"
    fill="#FF8834ff" />
  <path
    d="M16.65533 13.71101C16.55242 13.46678 16.27085 13.35226 16.02662 13.45517L14.42534 14.13024C14.24746 14.20522 14.13178 14.37946 14.13178 14.57251C14.13178 14.76557 14.24746 14.93981 14.42534 15.01478L16.02662 15.68986C16.27085 15.79277 16.55242 15.67824 16.65533 15.43392C16.75834 15.1897 16.64381 14.90813 16.39949 14.80522L15.84749 14.57251L16.39949 14.33981C16.64381 14.2368 16.75834 13.95533 16.65533 13.71101z"
    fill="#FF8834ff" />
</svg>