<svg data-v-2de818a2="" xmlns="http://www.w3.org/2000/svg" viewBox="0 0 24 24" width="24" height="24" class="navigation-channel-icon">
        <path d="M8.8614 8.76909C8.8614 9.08393 8.60718 9.33854 8.29259 9.33854C7.97725 9.33854 7.72423 9.08384 7.72423 8.76929L7.72423 6.83868C7.72423 6.48234 7.43235 6.19069 7.0758 6.19069C6.71712 6.19069 6.42558 6.48224 6.42558 6.84091C6.42558 7.1555 6.17161 7.40927 5.85677 7.40927C5.54228 7.40927 5.28841 7.15541 5.28841 6.84091C5.28841 5.85747 6.09018 5.05576 7.07847 5.05576C7.54811 5.05576 7.97561 5.23751 8.29513 5.53593C8.61444 5.23932 9.04217 5.05576 9.51385 5.05576C10.49741 5.05576 11.29901 5.85539 11.29901 6.84091C11.29901 7.15541 11.04509 7.40927 10.73069 7.40927C10.41581 7.40927 10.16179 7.1555 10.16179 6.84091C10.16179 6.48224 9.87034 6.19069 9.51161 6.19069C9.16734 6.19069 8.8855 6.45777 8.86286 6.7956L8.8614 8.76909z" fill="#59E1F9ff" />
        <path d="M9.33091 8.79366C7.51599 8.72799 5.66132 9.10233 4.29712 9.77148C3.04683 10.3848 1.28551 12.06163 1.17563 13.24186L19.99978 13.24186C19.9176 13.24186 19.69238 13.00061 19.62278 12.94704C19.49453 12.84922 19.37347 12.74736 19.24483 12.65126C18.94022 12.42346 18.61363 12.21888 18.29386 12.0121C17.65238 11.59622 16.99574 11.20406 16.32077 10.84483C14.97754 10.12925 13.55933 9.54411 12.07901 9.18094C11.18246 8.96117 10.25731 8.82716 9.33091 8.79366z" fill="#00B9E7ff" />
        <path d="M18.02774 11.41565C17.70211 12.24288 14.52787 12.35683 13.38384 12.35683L2.49348 12.35683C2.10351 12.35683 1.73142 12.48989 1.47546 12.72173C1.22219 12.95174 1.11409 13.25328 1.17573 13.54992C1.17573 13.55299 1.17573 13.55664 1.17797 13.55837C1.41606 14.67648 4.0128 14.73178 5.0527 15.53405C5.09424 15.56621 5.13623 15.59837 5.17867 15.62966C7.91109 17.63846 9.78701 18.6672 13.13904 17.71267C13.69555 17.55427 15.19786 17.36352 15.71453 17.13859C16.18272 16.93488 16.62989 16.70304 17.04768 16.44182C18.04598 15.81734 19.06493 14.97485 19.66666 14.09357C19.75555 13.96397 20.7217 12.52742 20.7409 12.53501L18.02774 11.41565z" fill="#00B9E7ff" />
        <path d="M22.46803 11.82912L21.70282 11.39184C21.14093 11.07062 20.46557 11.06438 19.908 11.33693C19.85894 10.71955 19.51181 10.13933 18.94992 9.81768L18.1847 9.38036C18.04358 9.29951 17.86483 9.3482 17.784 9.4898L17.58346 9.84046C17.16941 10.56451 17.42131 11.4888 18.14544 11.90285L18.5497 12.13421C18.5497 12.13469 18.54922 12.13517 18.54874 12.13517L19.86653 12.88867L19.86739 12.88733L20.31408 13.14288C21.03821 13.55693 21.9624 13.30502 22.37645 12.58138L22.57709 12.22982C22.65792 12.0887 22.60925 11.90995 22.46803 11.82912z" fill="#00B9E7ff" />
        <path d="M15.72134 17.13274C10.93354 17.26502 8.271 15.79171 6.93356 14.64336C6.22146 14.03194 5.35889 13.54982 4.42032 13.54982C3.05163 13.54982 1.2445 13.54982 1.17568 13.54982C1.17568 13.5529 1.17568 13.55654 1.17792 13.55827C1.41601 14.67638 2.09274 15.69168 3.13265 16.49395C3.17419 16.52659 3.21618 16.55827 3.25907 16.58957C5.99104 18.59837 10.74701 18.66758 14.09894 17.71258C14.65872 17.55312 15.20189 17.3592 15.72134 17.13274z" fill="#FDDE80ff" />
        <path d="M15.72115 17.13245C14.05325 17.17843 12.64522 17.01946 11.45702 16.76794C10.20269 16.50221 10.78694 18.28627 11.37485 18.22195C12.33437 18.11741 13.26077 17.95085 14.09875 17.71229C14.65843 17.55283 15.2017 17.35891 15.72115 17.13245z" fill="#FDDE80ff" />
        <path d="M9.38887 16.1711C9.94099 17.9592 11.17344 19.1832 12.37814 19.08038C12.47376 19.07194 12.5376 18.97632 12.51926 18.88205L11.89344 15.66634C11.87789 15.58723 11.80147 15.53587 11.72237 15.55114L9.50232 15.98352C9.417 16.00003 9.3634 16.08806 9.38887 16.1711z" fill="#00B9E7ff" />
        <path d="M10.176 13.824C10.176 14.30122 9.78931 14.688 9.31253 14.688C8.83527 14.688 8.44853 14.30122 8.44853 13.824C8.44853 13.34678 8.83527 12.96 9.31253 12.96C9.78931 12.96 10.176 13.34678 10.176 13.824z" fill="#59E1F9ff" />
      </svg>