<svg data-v-2de818a2="" xmlns="http://www.w3.org/2000/svg" viewBox="0 0 24 24" width="24" height="24" class="navigation-channel-icon">
        <path d="M16.20278 7.48279C16.20278 7.48279 18.68918 4.2562 15.92813 1.39368C15.92813 1.39368 13.49069 4.53138 16.20278 7.48279z" fill="#58D598ff" />
        <path d="M19.65955 6.89972C19.06157 6.33462 18.14237 6.28571 17.48774 6.78415L16.95158 7.19248C16.63517 7.4334 16.18339 7.37222 15.94253 7.05587C15.70166 6.73951 15.76282 6.28775 16.07914 6.04684L16.61539 5.6385C17.83094 4.71282 19.53811 4.80367 20.64864 5.85315L20.9688 6.15571C21.25776 6.42884 21.27062 6.88453 20.9975 7.17354C20.72438 7.46255 20.26867 7.47541 19.97971 7.20229L19.65955 6.89972z" fill="#58D598ff" />
        <path d="M13.76218 18.62784C11.42122 21.00144 7.62539 21.00144 5.28445 18.62784C2.94351 16.25424 2.94351 12.40541 5.28445 10.03176C7.62539 7.65815 11.42122 7.65815 13.76218 10.03176C16.10314 12.40541 16.10314 16.25424 13.76218 18.62784z" fill="#FF5C7Aff" />
        <path d="M16.98826 13.3248C15.20045 15.13766 12.30221 15.13766 10.5143 13.3248C8.72694 11.51203 8.72694 8.57336 10.5143 6.76053C12.30221 4.94817 15.20045 4.94817 16.98826 6.76053C18.77616 8.57336 18.77616 11.51203 16.98826 13.3248z" fill="#FF5C7Aff" />
        <path d="M11.4289 17.76595C11.63558 17.74598 11.78016 18.03706 11.60429 18.14746C9.94186 19.1903 7.7309 18.95635 6.31959 17.47056C4.89422 15.97085 4.75708 13.69296 5.88162 12.0431C5.99706 11.87376 6.26584 12.01766 6.2359 12.22042C6.09332 13.18627 6.1122 14.82182 7.41713 16.1953C8.86136 17.71555 10.46189 17.85984 11.4289 17.76595z" fill="#FFCFE6ff" />
      </svg>