<svg data-v-2de818a2="" xmlns="http://www.w3.org/2000/svg" viewBox="0 0 24 24" width="24" height="24" class="navigation-channel-icon">
        <path d="M21.6134 12.7514C21.6134 18.0543 17.3145 22.3532 12.0116 22.3532C6.70871 22.3532 2.40985 18.0543 2.40985 12.7514C2.40985 7.44852 6.70871 3.14966 12.0116 3.14966C17.3145 3.14966 21.6134 7.44852 21.6134 12.7514z" fill="#00B9E7ff" />
        <path d="M18.1303 15.0757C18.0959 14.6629 17.7334 14.3562 17.3207 14.3906C16.3519 14.4713 15.4509 14.7346 14.7661 15.3594C14.0704 15.9941 13.7054 16.9024 13.6097 18.0462C13.5751 18.459 13.8818 18.8216 14.2945 18.8561C14.7073 18.8907 15.0699 18.584 15.1044 18.1713C15.1794 17.2748 15.4441 16.7713 15.7771 16.4675C16.1209 16.1538 16.6475 15.9519 17.4452 15.8854C17.858 15.851 18.1647 15.4885 18.1303 15.0757z" fill="#ffffffff" />
        <path d="M6.02082 15.0757C6.05521 14.6629 6.41772 14.3562 6.8305 14.3906C7.79174 14.4707 8.68617 14.7305 9.36911 15.3449C10.0636 15.9698 10.4335 16.8648 10.5368 17.9927C10.5746 18.4052 10.2708 18.7702 9.85832 18.808C9.44583 18.8458 9.08083 18.542 9.04305 18.1295C8.96275 17.2525 8.69813 16.759 8.36583 16.46C8.02198 16.1507 7.49735 15.9513 6.70596 15.8854C6.29318 15.851 5.98643 15.4885 6.02082 15.0757z" fill="#ffffffff" />
        <path d="M10.6023 7.59375L9.65909 8.56794C9.37096 8.86552 9.37862 9.34033 9.6762 9.62846C9.97379 9.91659 10.4486 9.90893 10.7367 9.61135L12.0238 8.28208C12.0246 8.28144 12.0254 8.28076 12.0262 8.28005C13.1618 7.25425 14.9059 7.30228 15.988 8.38436C17.019 9.41539 17.1339 11.0671 16.2172 12.201C15.0918 13.5931 14.0742 14.7018 12.3377 16.1534C12.1404 16.3183 11.852 16.3188 11.6547 16.1539C10.0098 14.7787 9.0262 13.6646 7.82738 12.1998C6.89835 11.0646 6.98682 9.40357 8.02405 8.36634C8.71951 7.67088 9.69501 7.41286 10.6023 7.59375z" fill="#ffffffff" />
      </svg>