<svg data-v-2de818a2="" xmlns="http://www.w3.org/2000/svg" viewBox="0 0 24 24" width="24" height="24" class="navigation-channel-icon">
        <path d="M16.5756 2.73858C17.0252 3.05929 17.1297 3.68377 16.809 4.1334L12.7636 9.8051L6.23518 5.89825C5.76127 5.61464 5.607 5.00056 5.8906 4.52665C6.1742 4.05275 6.78829 3.89847 7.26219 4.18208L12.2071 7.14124L15.1808 2.97203C15.5015 2.5224 16.126 2.41788 16.5756 2.73858z" fill="#FB813Aff" />
        <path d="M18.7433 19.4261C18.7433 20.0834 18.2145 20.6161 17.5619 20.6161C16.9098 20.6161 16.3806 20.0834 16.3806 19.4261C16.3806 18.7687 16.9098 18.2361 17.5619 18.2361C18.2145 18.2361 18.7433 18.7687 18.7433 19.4261z" fill="#FB813Aff" />
        <path d="M7.61923 19.4261C7.61923 20.0834 7.09045 20.6161 6.43791 20.6161C5.78577 20.6161 5.25659 20.0834 5.25659 19.4261C5.25659 18.7687 5.78577 18.2361 6.43791 18.2361C7.09045 18.2361 7.61923 18.7687 7.61923 19.4261z" fill="#FB813Aff" />
        <path d="M4.81302 19.4261L19.1869 19.4261C20.0153 19.4261 20.6869 18.7545 20.6869 17.9261L20.6869 8.03384C20.6869 7.20542 20.0153 6.53384 19.1869 6.53384L4.81302 6.53384C3.98459 6.53384 3.31302 7.20542 3.31302 8.03384L3.31302 17.9261C3.31302 18.7545 3.98459 19.4261 4.81302 19.4261z" fill="#FDDE80ff" />
        <path d="M11.9998 16.8483C9.87872 16.8483 8.15967 15.1166 8.15967 12.98C8.15967 10.8433 9.87872 9.1116 11.9998 9.1116C14.1209 9.1116 15.8399 10.8433 15.8399 12.98C15.8399 15.1166 14.1209 16.8483 11.9998 16.8483z" fill="#FB813Aff" />
        <path d="M10.4728 11.6659C10.4728 11.1053 10.8674 10.8758 11.3496 11.1561L13.6087 12.47C14.0909 12.7503 14.0909 13.2093 13.6087 13.4896L11.3496 14.8035C10.8674 15.0843 10.4728 14.8548 10.4728 14.2937L10.4728 11.6659z" fill="#FDDE80ff" />
      </svg>