<svg data-v-2de818a2="" xmlns="http://www.w3.org/2000/svg" viewBox="0 0 24 24" width="24" height="24" class="navigation-channel-icon">
        <path d="M6.28319 5.03649C5.25003 6.23009 4.79786 7.80732 5.04193 9.3748L5.656 12.55018C7.06937 13.09517 7.15348 14.74925 7.33434 16.29485C8.39425 16.06339 10.62202 15.94627 12.0743 15.94627C13.52851 15.94627 15.90058 16.06435 16.96195 16.29485C17.15165 14.75213 17.07043 13.11754 18.45456 12.56573L19.10563 9.36022C19.34678 7.80586 18.89414 6.22912 17.86243 5.03552C16.83024 3.8419 15.33034 3.15685 13.7473 3.15685L10.39882 3.15685C8.8153 3.15685 7.31441 3.8419 6.28319 5.03649z" fill="#FF8834ff" />
        <path d="M19.93709 10.71658C18.1105 10.71658 16.62605 12.14026 16.62605 13.89005L16.62605 15.60509L7.51956 15.64512L7.51956 13.9296C7.51956 12.25267 6.2136 10.89696 4.54629 10.73395L4.2081 10.71658C3.06616 10.71658 2.13844 11.60813 2.13844 12.70032C2.13844 12.81274 2.15002 12.92227 2.16883 13.02989C2.26773 13.59917 2.61895 14.09846 3.13516 14.3976L3.35129 14.5032L3.41159 14.53219C3.65426 14.64653 3.79417 14.84957 3.79417 15.07978L3.79417 16.66598C3.79417 17.88461 4.61962 18.91997 5.76204 19.29139C5.87396 19.83466 6.38775 20.24573 7.00576 20.24573C7.56588 20.24573 8.03529 19.90752 8.20317 19.44096L15.94829 19.44096C16.11658 19.90752 16.5865 20.24573 17.14618 20.24573C17.76557 20.24573 18.27936 19.83322 18.38986 19.28947C19.5289 18.91517 20.35142 17.88269 20.35142 16.66598L20.35142 15.07978L20.37754 14.90554C20.41469 14.79216 20.48266 14.69472 20.57482 14.62138L20.61389 14.59872L20.73158 14.53075C21.40896 14.26051 21.87792 13.67731 21.98352 12.99658L22.00723 12.70032C22.00675 11.60813 21.07805 10.71658 19.93709 10.71658z" fill="#FFD671ff" />
        <path d="M5.81625 19.43059L8.2275 19.43059L8.2275 19.55251C8.2275 20.21837 7.68773 20.75808 7.02187 20.75808C6.35603 20.75808 5.81625 20.21837 5.81625 19.55251L5.81625 19.43059z" fill="#FF8834ff" />
        <path d="M15.90566 19.43059L18.38621 19.43059L18.38621 19.51786C18.38621 20.20282 17.83094 20.75808 17.14598 20.75808C16.46093 20.75808 15.90566 20.20282 15.90566 19.51786L15.90566 19.43059z" fill="#FF8834ff" />
        <path d="M10.32854 7.5519C10.60022 7.2615 11.05584 7.2463 11.34624 7.51794L14.00314 10.00326C14.29354 10.27488 14.3087 10.7305 14.03702 11.0209C13.76544 11.3113 13.30982 11.32656 13.01942 11.05488L10.36253 8.56956C10.07213 8.29791 10.05696 7.84229 10.32854 7.5519z" fill="#FFD671ff" />
        <path d="M10.44874 11.14109C10.15834 10.8695 10.14317 10.41389 10.41485 10.12349L12.9001 7.46658C13.17178 7.17618 13.62739 7.16098 13.91779 7.43263C14.20819 7.70427 14.22336 8.15989 13.95178 8.45029L11.46643 11.1072C11.19475 11.3976 10.73914 11.41277 10.44874 11.14109z" fill="#FFD671ff" />
      </svg>